<?xml version="1.0" encoding="UTF-8"?>
<svg xmlns="http://www.w3.org/2000/svg" version="1.1" viewBox="0 0 512 512">
  <defs>
    <style>
      .cls-1 {
        fill: #1957a0;
      }

      .cls-2 {
        fill: #1958a1;
      }

      .cls-3 {
        fill: #fff;
      }

      .cls-4 {
        fill: #2196f3;
      }

      .cls-5 {
        fill: #4fb1cf;
      }

      .cls-6 {
        fill: #67c6e8;
      }

      .cls-7 {
        fill: #00a9e4;
      }

      .cls-8 {
        fill: #165195;
        stroke: #00bcd4;
        stroke-miterlimit: 10;
        stroke-width: 6px;
      }

      .cls-9 {
        fill: #1565c0;
      }
    </style>
  </defs>
  <!-- Generator: Adobe Illustrator 28.7.1, SVG Export Plug-In . SVG Version: 1.2.0 Build 142)  -->
  <g>
    <g id="_图层_1" data-name="图层_1">
      <path class="cls-8" d="M449,384.5l-179.5,105.2c-8.3,4.9-18.6,4.9-26.9,0l-179.5-105.2c-8.1-4.8-13.2-13.5-13.2-23v-211c0-9.4,5-18.2,13.2-23L242.6,22.3c8.3-4.9,18.6-4.9,26.9,0l179.5,105.2c8.1,4.8,13.2,13.5,13.2,23v211c0,9.4-5,18.2-13.2,23Z"/>
      <path class="cls-6" d="M180.1,110.2l-51.9,96.9-38.9-39.1s-6.4-9.9-.2-16.7c6.2-6.8,48.1-47.4,48.1-47.4,0,0,13.9-9.5,33.5,1"/>
      <path class="cls-6" d="M334.1,110.2l51.9,96.9,38.9-39.1s6.4-9.9.2-16.7c-6.2-6.8-48.1-47.4-48.1-47.4,0,0-13.9-9.5-33.5,1"/>
      <path class="cls-4" d="M185.3,107.1l63.4-17.9c4.8-1.4,9.9-1.4,14.7,0l63.8,17.9c7.1,2,13.1,6.8,16.5,13.3l45.9,86c.3.6.6,1.1.8,1.7l28.9,64.6c2,4.6,2.8,9.6,2.1,14.6l-7.2,54.6c-.7,5.1-2.8,9.9-6.1,13.8l-30.5,36.4c-3.8,4.6-9.1,7.7-14.9,9l-100.9,22.4c-3.9.9-8,.9-11.9,0l-101.1-23c-5.6-1.3-10.7-4.3-14.4-8.7l-30.9-35.6c-3.5-4.1-5.8-9.1-6.4-14.4l-6.8-55c-.6-4.9.2-9.9,2.2-14.5l29.2-64.4c.3-.6.5-1.1.8-1.6l46.2-86.1c3.5-6.5,9.4-11.2,16.5-13.2Z"/>
      <polygon class="cls-7" points="356.4 288.8 310.2 398.4 256 382.9 286.6 317 356.4 288.8"/>
      <polygon class="cls-7" points="152.4 287.3 198.6 396.8 252.8 381.3 222.2 315.4 152.4 287.3"/>
      <path class="cls-9" d="M169.8,118.6l-46.3,86.1,96.7,3-40.2-96.9c-1.4-3.1-8.5,4.8-10.2,7.7Z"/>
      <path class="cls-9" d="M342.5,118.6l46.3,86.1-96.7,3,40.2-96.9c1.4-3.1,8.5,4.8,10.2,7.7Z"/>
      <path class="cls-1" d="M123.5,204.8l95.4.8c.2,0,.4.2.4.4v108.8c0,.3-.3.5-.5.4l-125.2-44.4c-.2,0-.3-.3-.2-.5l29.8-65.2c0-.1.2-.2.4-.2Z"/>
      <path class="cls-3" d="M222.5,315.1l68.2-.8c1.8,0,2.9,1.8,2.1,3.4l-31.5,61.4c-.4.8-1.2,1.3-2.1,1.3h-7.2c-.9,0-1.7-.5-2.1-1.3l-29.4-60.6c-.7-1.5.4-3.3,2.1-3.4Z"/>
      <path class="cls-5" d="M294.8,204.5h-75.9v108.4c0,2.2,1.8,4,4,4h68c2.2,0,4-1.8,4-4v-108.4Z"/>
      <path class="cls-2" d="M388.8,204.7l-94.3-.2v109.8l125.2-40.8-30.6-68.5c0,0-.1-.2-.3-.2Z"/>
      <path class="cls-3" d="M169.2,204.6h27.1c0,0,4.3.2,4.6,4.6s.1,31.7.1,31.7c0,0-.8,4.9-4.9,4.7s-27.2,0-27.2,0c0,0-4.2-1.6-4.2-4.8,0-3.1,0-29.1,0-32.1,0-2.3,2.6-4.3,4.5-4.2Z"/>
      <path class="cls-3" d="M315.4,204.6h27.1c0,0,4.3.2,4.6,4.6s.1,31.7.1,31.7c0,0-.8,4.9-4.9,4.7s-27.2,0-27.2,0c0,0-4.2-1.6-4.2-4.8s0-29.1,0-32.1,2.6-4.3,4.5-4.2Z"/>
      <path class="cls-9" d="M148.1,398.9l59.6-8.7s0,0,.1,0l42.7-9.7c0,0,.2,0,.3,0h9.5c0,0,.2,0,.3,0l43.4,9.7s0,0,.1,0l59.7,8c1.5.2,1.6,2.3.1,2.7l-99.7,22.9c-5,1.2-10.3,1.2-15.3,0l-100.9-22.3c-1.5-.3-1.4-2.5,0-2.7Z"/>
    </g>
  </g>
</svg>