<?xml version="1.0" encoding="UTF-8"?>
<svg xmlns="http://www.w3.org/2000/svg" version="1.1" viewBox="0 0 975.6 512">
  <defs>
    <style>
      .cls-1 {
        fill: #1957a0;
      }

      .cls-2 {
        fill: #1958a1;
      }

      .cls-3 {
        fill: #fff;
      }

      .cls-4 {
        fill: #2196f3;
      }

      .cls-5 {
        fill: #4fb1cf;
      }

      .cls-6 {
        fill: #67c6e8;
      }

      .cls-7 {
        fill: #00a9e4;
      }

      .cls-8 {
        fill: #165195;
        stroke: #00bcd4;
        stroke-miterlimit: 10;
        stroke-width: 6px;
      }

      .cls-9 {
        fill: #1565c0;
      }
    </style>
  </defs>
  <!-- Generator: Adobe Illustrator 28.7.1, SVG Export Plug-In . SVG Version: 1.2.0 Build 142)  -->
  <g>
    <g id="_图层_1" data-name="图层_1">
      <path class="cls-8" d="M341,353.6l-140.1,82.1c-8.3,4.9-18.6,4.9-26.9,0l-140.1-82.1c-8.1-4.8-13.2-13.5-13.2-23v-164.9c0-9.4,5-18.2,13.2-23L174,60.7c8.3-4.9,18.6-4.9,26.9,0l140.1,82.1c8.1,4.8,13.2,13.5,13.2,23v164.9c0,9.4-5,18.2-13.2,23Z"/>
      <path class="cls-6" d="M126.1,130.3l-41.9,78.4-31.5-31.6s-5.2-8-.2-13.5,38.9-38.3,38.9-38.3c0,0,11.3-7.7,27.1.8"/>
      <path class="cls-6" d="M250.6,130.3l41.9,78.4,31.5-31.6s5.2-8,.2-13.5-38.9-38.3-38.9-38.3c0,0-11.3-7.7-27.1.8"/>
      <path class="cls-4" d="M130.3,127.7l51.3-14.5c3.9-1.1,8-1.1,11.9,0l51.6,14.5c5.7,1.6,10.6,5.5,13.4,10.8l37.2,69.6c.2.5.5.9.7,1.4l23.4,52.3c1.7,3.7,2.2,7.8,1.7,11.8l-5.8,44.2c-.5,4.1-2.3,8-4.9,11.2l-24.7,29.5c-3.1,3.7-7.3,6.3-12,7.3l-81.6,18.1c-3.2.7-6.4.7-9.6,0l-81.8-18.6c-4.5-1-8.6-3.5-11.7-7l-25-28.8c-2.9-3.3-4.7-7.3-5.2-11.7l-5.5-44.5c-.5-4,.1-8,1.8-11.7l23.6-52.1c.2-.4.4-.9.7-1.3l37.4-69.6c2.8-5.2,7.6-9.1,13.3-10.7Z"/>
      <polygon class="cls-7" points="268.7 274.8 231.3 363.4 187.5 350.8 212.2 297.5 268.7 274.8"/>
      <polygon class="cls-7" points="103.7 273.5 141 362.1 184.9 349.6 160.1 296.3 103.7 273.5"/>
      <path class="cls-9" d="M117.8,137.1l-37.5,69.7,78.2,2.5-32.5-78.4c-1.1-2.5-6.9,3.9-8.2,6.3Z"/>
      <path class="cls-9" d="M257.5,137.1l37.5,69.7-78.2,2.5,32.5-78.4c1.1-2.5,6.9,3.9,8.2,6.3Z"/>
      <path class="cls-1" d="M80.3,206.8l77.2.7c.2,0,.3.1.3.3v88c0,.2-.2.4-.4.3l-101.3-35.9c-.2,0-.3-.3-.2-.4l24.1-52.8c0-.1.2-.2.3-.2Z"/>
      <path class="cls-3" d="M160.3,296l55.1-.7c1.4,0,2.4,1.5,1.7,2.8l-25.5,49.7c-.3.6-1,1-1.7,1h-5.8c-.7,0-1.4-.4-1.7-1.1l-23.8-49c-.6-1.2.3-2.7,1.7-2.7Z"/>
      <path class="cls-5" d="M218.8,206.5h-61.4v87.7c0,1.8,1.4,3.2,3.2,3.2h55c1.8,0,3.2-1.4,3.2-3.2v-87.7Z"/>
      <path class="cls-2" d="M294.9,206.7l-76.3-.2v88.8l101.3-33-24.8-55.4c0,0-.1-.1-.2-.1Z"/>
      <path class="cls-3" d="M117.2,206.6h21.9c0,0,3.5.2,3.7,3.7s0,25.6,0,25.6c0,0-.6,3.9-4,3.8s-22,0-22,0c0,0-3.4-1.3-3.4-3.8s0-23.6,0-26,2.1-3.5,3.6-3.4Z"/>
      <path class="cls-3" d="M235.5,206.6h21.9c0,0,3.5.2,3.7,3.7s0,25.6,0,25.6c0,0-.6,3.9-4,3.8s-22,0-22,0c0,0-3.4-1.3-3.4-3.8,0-2.5,0-23.6,0-26,0-1.9,2.1-3.5,3.6-3.4Z"/>
      <path class="cls-9" d="M100.2,363.8l48.2-7s0,0,0,0l34.5-7.9c0,0,.2,0,.2,0h7.7c0,0,.2,0,.2,0l35.1,7.9s0,0,0,0l48.3,6.5c1.2.2,1.3,1.9,0,2.2l-80.7,18.5c-4.1.9-8.3,1-12.4,0l-81.6-18c-1.2-.3-1.1-2,0-2.2Z"/>
      <g>
        <path class="cls-9" d="M525.6,232h-37.9v-22.3c0-3.2-1.8-4.8-5.4-4.8h-7.6c-3.6,0-5.4,1.6-5.4,4.8v79.7c0,3.2,1.8,4.8,5.4,4.8h7.6c3.6,0,5.4-1.6,5.4-4.8v-21.4h37.9v24.3c0,17.9-10.6,26.9-31.8,26.9h-30.5c-21.2,0-31.8-8.9-31.8-26.9v-85.3c0-17.9,10.6-26.9,31.8-26.9h30.5c21.2,0,31.8,9,31.8,26.9v25.1Z"/>
        <path class="cls-9" d="M589.9,211h36.2v108.1h-36.8v-11.7c-2.7,7.8-9.1,11.7-19.1,11.7h-3.9c-19.2,0-28.8-8.9-28.8-26.9v-54.4c0-17.9,9.6-26.9,28.8-26.9h3.9c11.1,0,17.7,4.6,19.7,13.9v-13.9ZM579.8,292h3.7c3.9,0,5.8-2.2,5.8-6.5v-40.9c0-4.3-1.9-6.5-5.8-6.5h-3.7c-3.6,0-5.4,1.6-5.4,4.8v44.4c0,3.2,1.8,4.8,5.4,4.8Z"/>
        <path class="cls-9" d="M671.4,211l13.2,69.3,13-69.3h36.6l-27.7,108.1h-44l-27.7-108.1h36.6Z"/>
        <path class="cls-9" d="M770.8,211l13.2,69.3,13-69.3h36.6l-27.7,108.1h-44l-27.7-108.1h36.6Z"/>
        <path class="cls-9" d="M866,347h-18.2v-26.6h16c3.5,0,6.2-.6,8.2-1.7,2-1.2,3.8-3.9,5.2-8.2h-14.1l-29.7-99.4h38.5l13.2,65.8,11.7-65.8h37l-27.1,105.9c-3,10-7.7,17.5-13.9,22.5-6.2,5.1-15.2,7.6-27.1,7.6Z"/>
      </g>
    </g>
  </g>
</svg>