<?xml version="1.0" encoding="UTF-8"?>
<svg xmlns="http://www.w3.org/2000/svg" version="1.1" viewBox="0 0 512 512">
  <defs>
    <style>
      .cls-1 {
        fill: #1957a0;
      }

      .cls-2 {
        fill: #1958a1;
      }

      .cls-3 {
        fill: #fff;
      }

      .cls-4 {
        fill: #2196f3;
      }

      .cls-5 {
        fill: #4fb1cf;
      }

      .cls-6 {
        fill: #67c6e8;
      }

      .cls-7 {
        fill: #00a9e4;
      }

      .cls-8 {
        fill: #165195;
        stroke: #00bcd4;
        stroke-miterlimit: 10;
        stroke-width: 6px;
      }

      .cls-9 {
        font-family: Teko-Bold, Teko;
        font-size: 118px;
        font-weight: 700;
      }

      .cls-9, .cls-10 {
        fill: #1565c0;
      }
    </style>
  </defs>
  <!-- Generator: Adobe Illustrator 28.7.1, SVG Export Plug-In . SVG Version: 1.2.0 Build 142)  -->
  <g>
    <g id="_图层_1" data-name="图层_1">
      <path class="cls-8" d="M176.4,314.7l-64.3,37.7c-8.3,4.9-18.6,4.9-26.9,0l-64.3-37.7c-8.1-4.8-13.2-13.5-13.2-23v-76c0-9.4,5-18.2,13.2-23l64.3-37.7c8.3-4.9,18.6-4.9,26.9,0l64.3,37.7c8.1,4.8,13.2,13.5,13.2,23v76c0,9.4-5,18.2-13.2,23Z"/>
      <path class="cls-6" d="M65.2,189.5l-22.9,42.7-17.2-17.2s-2.8-4.4,0-7.4,21.2-20.9,21.2-20.9c0,0,6.1-4.2,14.8.5"/>
      <path class="cls-6" d="M133.1,189.5l22.9,42.7,17.2-17.2s2.8-4.4,0-7.4-21.2-20.9-21.2-20.9c0,0-6.1-4.2-14.8.5"/>
      <path class="cls-4" d="M67.5,188.1l27.9-7.9c2.1-.6,4.4-.6,6.5,0l28.1,7.9c3.1.9,5.8,3,7.3,5.9l20.2,37.9c.1.2.3.5.4.7l12.7,28.5c.9,2,1.2,4.2.9,6.4l-3.2,24.1c-.3,2.2-1.2,4.4-2.7,6.1l-13.5,16.1c-1.7,2-4,3.4-6.6,4l-44.5,9.9c-1.7.4-3.5.4-5.2,0l-44.6-10.1c-2.5-.6-4.7-1.9-6.4-3.8l-13.6-15.7c-1.6-1.8-2.5-4-2.8-6.4l-3-24.3c-.3-2.2,0-4.4,1-6.4l12.9-28.4c.1-.2.2-.5.4-.7l20.4-37.9c1.5-2.8,4.2-5,7.3-5.8Z"/>
      <polygon class="cls-7" points="143 268.2 122.6 316.5 98.7 309.7 112.2 280.6 143 268.2"/>
      <polygon class="cls-7" points="53 267.5 73.4 315.8 97.3 309 83.8 279.9 53 267.5"/>
      <path class="cls-10" d="M60.7,193.2l-20.4,38,42.6,1.3-17.7-42.7c-.6-1.4-3.7,2.1-4.5,3.4Z"/>
      <path class="cls-10" d="M136.8,193.2l20.4,38-42.6,1.3,17.7-42.7c.6-1.4,3.7,2.1,4.5,3.4Z"/>
      <path class="cls-1" d="M40.3,231.2l42.1.4c0,0,.2,0,.2.2v48c0,.1-.1.2-.2.2l-55.2-19.6c0,0-.1-.1-.1-.2l13.1-28.8c0,0,0-.1.2-.1Z"/>
      <path class="cls-3" d="M83.9,279.8l30-.4c.8,0,1.3.8.9,1.5l-13.9,27.1c-.2.3-.5.6-.9.6h-3.2c-.4,0-.8-.2-.9-.6l-13-26.7c-.3-.7.2-1.5.9-1.5Z"/>
      <path class="cls-5" d="M115.8,231h-33.5v47.8c0,1,.8,1.7,1.7,1.7h30c1,0,1.7-.8,1.7-1.7v-47.8Z"/>
      <path class="cls-2" d="M157.3,231.1h-41.6c0-.1,0,48.3,0,48.3l55.2-18-13.5-30.2s0,0-.1,0Z"/>
      <path class="cls-3" d="M60.4,231.1h11.9s1.9.1,2,2,0,14,0,14c0,0-.3,2.2-2.2,2.1s-12,0-12,0c0,0-1.8-.7-1.9-2.1s0-12.8,0-14.2,1.1-1.9,2-1.8Z"/>
      <path class="cls-3" d="M124.9,231.1h11.9s1.9.1,2,2,0,14,0,14c0,0-.3,2.2-2.2,2.1s-12,0-12,0c0,0-1.8-.7-1.9-2.1s0-12.8,0-14.2,1.1-1.9,2-1.8Z"/>
      <path class="cls-10" d="M51.1,316.7l26.3-3.8s0,0,0,0l18.8-4.3s0,0,.1,0h4.2s0,0,.1,0l19.1,4.3s0,0,0,0l26.3,3.5c.7,0,.7,1,0,1.2l-44,10.1c-2.2.5-4.5.5-6.8,0l-44.5-9.8c-.6-.1-.6-1.1,0-1.2Z"/>
      <text class="cls-9" transform="translate(229.2 291.7)"><tspan x="0" y="0">Cavvy</tspan></text>
    </g>
  </g>
</svg>